<svg id="visual" viewBox="0 0 900 600" width="900" height="600" xmlns="http://www.w3.org/2000/svg" xmlns:xlink="http://www.w3.org/1999/xlink" version="1.1"><rect x="0" y="0" width="900" height="600" fill="#ffffff"></rect><path d="M0 402L39 427L78 442L117 394L157 411L196 424L235 395L274 403L313 439L352 403L391 413L430 412L470 397L509 407L548 423L587 425L626 401L665 390L704 407L743 436L783 423L822 440L861 435L900 431L900 601L861 601L822 601L783 601L743 601L704 601L665 601L626 601L587 601L548 601L509 601L470 601L430 601L391 601L352 601L313 601L274 601L235 601L196 601L157 601L117 601L78 601L39 601L0 601Z" fill="#e8dfd8"></path><path d="M0 457L39 458L78 439L117 457L157 419L196 449L235 430L274 411L313 410L352 429L391 412L430 436L470 424L509 450L548 442L587 460L626 416L665 458L704 424L743 449L783 410L822 411L861 451L900 413L900 601L861 601L822 601L783 601L743 601L704 601L665 601L626 601L587 601L548 601L509 601L470 601L430 601L391 601L352 601L313 601L274 601L235 601L196 601L157 601L117 601L78 601L39 601L0 601Z" fill="#e8dad1"></path><path d="M0 457L39 445L78 449L117 460L157 468L196 463L235 458L274 469L313 453L352 454L391 453L430 453L470 453L509 456L548 460L587 438L626 449L665 454L704 462L743 471L783 449L822 443L861 441L900 439L900 601L861 601L822 601L783 601L743 601L704 601L665 601L626 601L587 601L548 601L509 601L470 601L430 601L391 601L352 601L313 601L274 601L235 601L196 601L157 601L117 601L78 601L39 601L0 601Z" fill="#e9d4cb"></path><path d="M0 488L39 476L78 485L117 467L157 473L196 464L235 486L274 451L313 476L352 452L391 477L430 491L470 477L509 491L548 485L587 489L626 479L665 457L704 472L743 478L783 484L822 483L861 464L900 490L900 601L861 601L822 601L783 601L743 601L704 601L665 601L626 601L587 601L548 601L509 601L470 601L430 601L391 601L352 601L313 601L274 601L235 601L196 601L157 601L117 601L78 601L39 601L0 601Z" fill="#e9cec6"></path><path d="M0 476L39 476L78 495L117 507L157 483L196 495L235 499L274 478L313 474L352 501L391 509L430 477L470 476L509 495L548 474L587 471L626 486L665 490L704 478L743 491L783 489L822 476L861 499L900 484L900 601L861 601L822 601L783 601L743 601L704 601L665 601L626 601L587 601L548 601L509 601L470 601L430 601L391 601L352 601L313 601L274 601L235 601L196 601L157 601L117 601L78 601L39 601L0 601Z" fill="#eac8c2"></path><path d="M0 500L39 513L78 512L117 509L157 497L196 512L235 527L274 510L313 492L352 513L391 523L430 526L470 519L509 512L548 504L587 488L626 504L665 523L704 492L743 516L783 515L822 514L861 524L900 509L900 601L861 601L822 601L783 601L743 601L704 601L665 601L626 601L587 601L548 601L509 601L470 601L430 601L391 601L352 601L313 601L274 601L235 601L196 601L157 601L117 601L78 601L39 601L0 601Z" fill="#eac2c0"></path><path d="M0 534L39 519L78 542L117 523L157 518L196 511L235 536L274 529L313 529L352 530L391 510L430 528L470 516L509 514L548 536L587 541L626 510L665 531L704 528L743 542L783 528L822 540L861 529L900 510L900 601L861 601L822 601L783 601L743 601L704 601L665 601L626 601L587 601L548 601L509 601L470 601L430 601L391 601L352 601L313 601L274 601L235 601L196 601L157 601L117 601L78 601L39 601L0 601Z" fill="#e9bcbf"></path><path d="M0 530L39 556L78 545L117 531L157 541L196 555L235 540L274 536L313 540L352 542L391 542L430 533L470 531L509 530L548 542L587 547L626 535L665 553L704 530L743 544L783 554L822 537L861 533L900 544L900 601L861 601L822 601L783 601L743 601L704 601L665 601L626 601L587 601L548 601L509 601L470 601L430 601L391 601L352 601L313 601L274 601L235 601L196 601L157 601L117 601L78 601L39 601L0 601Z" fill="#e8b6bf"></path><path d="M0 570L39 566L78 563L117 548L157 560L196 550L235 563L274 548L313 559L352 553L391 569L430 554L470 567L509 557L548 561L587 558L626 547L665 573L704 551L743 554L783 549L822 553L861 560L900 566L900 601L861 601L822 601L783 601L743 601L704 601L665 601L626 601L587 601L548 601L509 601L470 601L430 601L391 601L352 601L313 601L274 601L235 601L196 601L157 601L117 601L78 601L39 601L0 601Z" fill="#e6b1c0"></path><path d="M0 581L39 571L78 579L117 584L157 578L196 570L235 573L274 568L313 569L352 575L391 578L430 569L470 571L509 573L548 568L587 567L626 581L665 568L704 571L743 583L783 577L822 573L861 586L900 570L900 601L861 601L822 601L783 601L743 601L704 601L665 601L626 601L587 601L548 601L509 601L470 601L430 601L391 601L352 601L313 601L274 601L235 601L196 601L157 601L117 601L78 601L39 601L0 601Z" fill="#e2acc2"></path></svg>